<svg width="25" height="25" viewBox="0 0 25 25" fill="none" xmlns="http://www.w3.org/2000/svg">
<path d="M5.46876 18.75C4.57089 18.75 3.7098 18.3933 3.07491 17.7584C2.44002 17.1235 2.08334 16.2625 2.08334 15.3646V6.51042C2.08334 5.61255 2.44002 4.75145 3.07491 4.11657C3.7098 3.48168 4.57089 3.125 5.46876 3.125H19.5313C19.9758 3.125 20.4161 3.21257 20.8268 3.3827C21.2375 3.55283 21.6107 3.8022 21.9251 4.11657C22.2395 4.43093 22.4888 4.80414 22.659 5.21487C22.8291 5.62561 22.9167 6.06584 22.9167 6.51042V15.3646C22.9167 15.8092 22.8291 16.2494 22.659 16.6601C22.4888 17.0709 22.2395 17.4441 21.9251 17.7584C21.6107 18.0728 21.2375 18.3222 20.8268 18.4923C20.4161 18.6624 19.9758 18.75 19.5313 18.75H13.5542L8.33334 22.6562C8.13989 22.801 7.90996 22.8891 7.66929 22.9107C7.42862 22.9322 7.1867 22.8864 6.97059 22.7783C6.75449 22.6702 6.57273 22.5041 6.44565 22.2986C6.31858 22.093 6.2512 21.8562 6.25105 21.6146V18.75H5.4698H5.46876ZM13.0354 17.1875H19.5313C20.0147 17.1875 20.4784 16.9954 20.8203 16.6536C21.1621 16.3117 21.3542 15.8481 21.3542 15.3646V6.51042C21.3542 6.02695 21.1621 5.56328 20.8203 5.22142C20.4784 4.87956 20.0147 4.6875 19.5313 4.6875H5.46876C4.98529 4.6875 4.52163 4.87956 4.17976 5.22142C3.8379 5.56328 3.64584 6.02695 3.64584 6.51042V15.3646C3.64584 16.3708 4.46251 17.1875 5.46876 17.1875H7.81147V21.0937L13.0354 17.1875Z" fill="black"/>
</svg>
