<svg width="38" height="38" viewBox="0 0 25 25" fill="none" xmlns="http://www.w3.org/2000/svg">
<g clip-path="url(#clip0)">
<path d="M0.00314331 4.6875C0.00314331 3.8587 0.332383 3.06384 0.918435 2.47779C1.50449 1.89174 2.29934 1.5625 3.12814 1.5625H21.8781C22.7069 1.5625 23.5018 1.89174 24.0879 2.47779C24.6739 3.06384 25.0031 3.8587 25.0031 4.6875V20.3125C25.0031 21.1413 24.6739 21.9362 24.0879 22.5222C23.5018 23.1083 22.7069 23.4375 21.8781 23.4375H3.12814C2.29934 23.4375 1.50449 23.1083 0.918435 22.5222C0.332383 21.9362 0.00314331 21.1413 0.00314331 20.3125V4.6875V4.6875ZM1.56564 18.75V20.3125C1.56564 20.7269 1.73026 21.1243 2.02329 21.4174C2.31631 21.7104 2.71374 21.875 3.12814 21.875H21.8781C22.2925 21.875 22.69 21.7104 22.983 21.4174C23.276 21.1243 23.4406 20.7269 23.4406 20.3125V14.8438L17.5391 11.8016C17.3926 11.7282 17.2267 11.7027 17.0649 11.7288C16.9031 11.7549 16.7536 11.8312 16.6375 11.9469L10.8406 17.7437L6.68439 14.975C6.53433 14.8751 6.35433 14.8302 6.17492 14.8478C5.99551 14.8655 5.82773 14.9446 5.70002 15.0719L1.56564 18.75ZM9.37814 8.59375C9.37814 7.97215 9.13121 7.37601 8.69168 6.93647C8.25214 6.49693 7.65599 6.25 7.03439 6.25C6.41279 6.25 5.81665 6.49693 5.37711 6.93647C4.93757 7.37601 4.69064 7.97215 4.69064 8.59375C4.69064 9.21535 4.93757 9.81149 5.37711 10.251C5.81665 10.6906 6.41279 10.9375 7.03439 10.9375C7.65599 10.9375 8.25214 10.6906 8.69168 10.251C9.13121 9.81149 9.37814 9.21535 9.37814 8.59375Z" fill="black"/>
</g>
<defs>
<clipPath id="clip0">
<rect width="25" height="25" fill="white"/>
</clipPath>
</defs>
</svg>
