<svg width="30" height="30" viewBox="0 0 30 30" fill="none" xmlns="http://www.w3.org/2000/svg">
<path d="M5.76 24.24L7.26 18.3L16.2 9.36L20.64 13.8L11.7 22.74L5.76 24.24ZM8.34 18.9L7.44 22.56L11.1 21.66L18.96 13.8L16.2 11.04L8.34 18.9V18.9Z" fill="black"/>
<path d="M10.68 22.38C10.32 20.88 9.12 19.68 7.62 19.32L7.92 18.18C9.84 18.66 11.34 20.16 11.82 22.08L10.68 22.38V22.38Z" fill="black"/>
<path d="M17.5788 11.5722L18.4272 12.4206L10.6212 20.2326L9.7728 19.3866L17.5788 11.5722Z" fill="black"/>
<path d="M6.6 23.4L8.34 22.98C8.16 22.32 7.68 21.84 7.02 21.66L6.6 23.4Z" fill="black"/>
<path d="M21 13.44L16.56 9L18.36 7.2L18.66 7.26C20.82 7.56 22.5 9.24 22.8 11.4L22.86 11.7L21 13.44ZM18.24 9L21 11.76L21.54 11.22C21.24 9.84 20.16 8.76 18.78 8.46L18.24 9V9Z" fill="black"/>
</svg>
