<svg width="25" height="25" viewBox="0 0 25 25" fill="none" xmlns="http://www.w3.org/2000/svg">
<g clip-path="url(#clip0)">
<path d="M13.85 0.0719455C12.3562 -0.301492 10.9687 0.828195 10.8687 2.2907C10.7562 3.93288 10.5094 5.4407 10.2 6.33757C10.0047 6.90007 9.45156 7.92038 8.575 8.89851C7.70469 9.87195 6.57187 10.7391 5.24531 11.1016C4.19531 11.3876 3.125 12.2969 3.125 13.6251V19.8766C3.125 21.1969 4.19062 22.1641 5.3875 22.2907C7.05937 22.4688 7.83125 22.9391 8.61875 23.4204L8.69375 23.4673C9.11875 23.7251 9.59687 24.011 10.2094 24.2235C10.8297 24.436 11.5547 24.5626 12.5 24.5626H17.9687C19.4328 24.5626 20.4672 23.8173 20.9906 22.9001C21.2436 22.4673 21.3803 21.9764 21.3875 21.4751C21.3875 21.2376 21.3516 20.9876 21.2672 20.7501C21.5812 20.3391 21.8609 19.8469 22.0297 19.3423C22.2016 18.8266 22.2984 18.1516 22.0359 17.5469C22.1437 17.3438 22.2234 17.1266 22.2844 16.9173C22.4047 16.4954 22.4609 16.0298 22.4609 15.5782C22.4609 15.1282 22.4047 14.6641 22.2844 14.2407C22.2297 14.046 22.1575 13.8567 22.0687 13.6751C22.3423 13.2858 22.5184 12.8365 22.582 12.365C22.6456 11.8935 22.595 11.4136 22.4344 10.9657C22.1125 10.0407 21.3687 9.24695 20.5594 8.9782C19.2359 8.53757 17.7422 8.54695 16.6281 8.64851C16.3968 8.66932 16.166 8.69537 15.9359 8.72663C16.478 6.40536 16.4447 3.98681 15.8391 1.68132C15.7337 1.31193 15.5316 0.977391 15.2536 0.712304C14.9756 0.447218 14.6318 0.261207 14.2578 0.173508L13.85 0.0719455ZM17.9687 23.0016H12.5C11.7031 23.0016 11.1516 22.8938 10.7187 22.7454C10.2797 22.5938 9.92812 22.3891 9.50625 22.1313L9.44375 22.0938C8.57656 21.5641 7.57187 20.9516 5.55312 20.7376C5.03281 20.6813 4.6875 20.2844 4.6875 19.8782V13.6251C4.6875 13.2282 5.04062 12.7766 5.65625 12.6094C7.36719 12.1407 8.74531 11.0532 9.74062 9.9407C10.7328 8.83132 11.4031 7.63601 11.675 6.85007C12.0547 5.75632 12.3109 4.08757 12.4281 2.39695C12.4672 1.83132 12.9906 1.46882 13.4703 1.58757L13.8797 1.6907C14.1297 1.7532 14.2828 1.91413 14.3297 2.08913C14.9678 4.52042 14.8891 7.08436 14.1031 9.47195C14.0586 9.60474 14.0507 9.74705 14.08 9.88398C14.1094 10.0209 14.175 10.1474 14.2701 10.2503C14.3651 10.3532 14.4861 10.4286 14.6202 10.4687C14.7544 10.5088 14.8969 10.5121 15.0328 10.4782L15.0375 10.4766L15.0594 10.4719L15.15 10.4501C15.6843 10.3366 16.2248 10.2547 16.7687 10.2048C17.8047 10.111 19.0453 10.1204 20.0656 10.461C20.3391 10.5516 20.7687 10.9298 20.9562 11.4766C21.1234 11.9579 21.0922 12.5235 20.5406 13.0735L19.9891 13.6251L20.5406 14.1782C20.6078 14.2454 20.7047 14.3985 20.7812 14.6704C20.8562 14.9313 20.8984 15.2485 20.8984 15.5782C20.8984 15.9094 20.8562 16.2251 20.7812 16.4876C20.7031 16.7594 20.6078 16.9126 20.5406 16.9798L19.9891 17.5313L20.5406 18.0844C20.6141 18.1579 20.7109 18.361 20.5484 18.8469C20.3791 19.3182 20.1099 19.7472 19.7594 20.1048L19.2078 20.6563L19.7594 21.2094C19.7687 21.2173 19.8234 21.2876 19.8234 21.4751C19.8165 21.7043 19.7514 21.9279 19.6344 22.1251C19.3766 22.5751 18.8484 23.0001 17.9687 23.0001V23.0016Z" fill="black"/>
</g>
<defs>
<clipPath id="clip0">
<rect width="25" height="25" fill="white"/>
</clipPath>
</defs>
</svg>
