<svg width="25" height="25" viewBox="0 0 25 25" fill="none" xmlns="http://www.w3.org/2000/svg">
<path d="M10.8688 2.72656C10.9703 1.26563 12.3563 0.135939 13.85 0.507814L14.2578 0.610939C14.9813 0.792189 15.6234 1.32344 15.8391 2.11875C16.1828 3.39375 16.6719 6.04219 15.9359 9.16563C16.166 9.13384 16.3968 9.10727 16.6281 9.08594C17.7422 8.98438 19.2359 8.97344 20.5594 9.41406C21.3688 9.68438 22.1125 10.4781 22.4344 11.4031C22.7219 12.2344 22.6844 13.2188 22.0688 14.1109C22.1594 14.2969 22.2297 14.4891 22.2844 14.6781C22.4047 15.1 22.4609 15.5641 22.4609 16.0156C22.4609 16.4672 22.4047 16.9313 22.2844 17.3531C22.2234 17.5641 22.1438 17.7797 22.0344 17.9844C22.2984 18.5891 22.2016 19.2641 22.0297 19.7781C21.8537 20.2857 21.5962 20.7612 21.2672 21.1859C21.3516 21.4234 21.3859 21.6734 21.3859 21.9125C21.3859 22.3891 21.2469 22.8891 20.9906 23.3375C20.4688 24.2531 19.4328 25 17.9688 25H12.5C11.5547 25 10.8281 24.8734 10.2094 24.6594C9.67734 24.4651 9.16891 24.2114 8.69375 23.9031L8.61875 23.8563C7.83125 23.3766 7.05781 22.9047 5.3875 22.7281C4.19063 22.6 3.125 21.6344 3.125 20.3125V14.0625C3.125 12.7344 4.19531 11.825 5.24531 11.5391C6.57188 11.1766 7.70469 10.3094 8.57656 9.33594C9.45156 8.35625 10.0047 7.33594 10.2 6.775C10.5109 5.87656 10.7563 4.37031 10.8688 2.72813V2.72656Z" fill="#681300"/>
</svg>
